<?xml version="1.0" encoding="utf-8"?>
<!-- Generator: Adobe Illustrator 22.1.0, SVG Export Plug-In . SVG Version: 6.00 Build 0)  -->
<svg version="1.1" id="Layer_1" xmlns="http://www.w3.org/2000/svg" xmlns:xlink="http://www.w3.org/1999/xlink" x="0px" y="0px"
	 viewBox="0 0 573 155.6" style="enable-background:new 0 0 573 155.6;" xml:space="preserve">
<style type="text/css">
	.st0{fill:#FFFFFF;}
	.st1{fill:#D12430;}
	.st2{fill:#6C1C45;}
	.st3{fill:#C8C8C6;}
	.st4{fill:#7B99AC;}
</style>
<rect class="st0" width="573" height="155.6"/>
<title>Artboard 1</title>
<g>
	<path class="st1" d="M98.4,88.1c0.1,0,0.1-0.1,0.1-0.1l0,0c0.1-0.2,0.1-0.4,0.2-0.6c0.1-0.4,0.3-0.7,0.4-1.1
		c0.1-0.2,0.1-0.4,0.2-0.6c0.1-0.5,0.4-1.1,0.5-1.6c0.4-1.6,0.7-3.2,0.9-4.8c0.1-0.9,0.1-1.9,0.1-2.8s-0.1-2-0.1-3
		c-0.4-3.1-1.2-6.2-2.6-9.1c-1.4-2.9-3.1-5.6-5.1-8.1c-2.2-2.6-4.7-5.1-7.4-7.2c-1.1-0.8-2.2-1.6-3.4-2.4c-0.1,0-0.3,0.1-0.4,0.1
		c-0.4,0.2-0.8,0.4-1.2,0.6l-0.1,0.1c-3.1,1.7-6.1,3.6-8.8,5.7c-2.8,2.1-5.4,4.5-7.6,7.2c2.3,0.5,4.5,1.2,6.7,2.1
		c0.2,0.1,0.4,0.1,0.6,0.2c2.7,1.1,5.3,2.7,7.5,4.6c2.3,2,4.1,4.4,5.3,7.1l0,0c0.5,1.2,1,2.5,1.4,3.8c0.5,1.9,0.7,3.8,0.7,5.7v0.3
		c0,1.6-0.2,3.2-0.5,4.8C90,90.1,94.4,89.7,98.4,88.1z"/>
	<path class="st2" d="M86.4,103.3c0,0.1,0.1,0.1,0.1,0.1l0,0c0.2,0.1,0.4,0.1,0.6,0.2c0.4,0.1,0.7,0.3,1.1,0.4
		c0.2,0.1,0.4,0.1,0.6,0.2c0.5,0.1,1.1,0.4,1.6,0.5c1.6,0.4,3.2,0.7,4.8,0.9c0.9,0.1,1.9,0.1,2.8,0.1s2-0.1,3-0.1
		c3.1-0.4,6.2-1.2,9.1-2.6c2.9-1.4,5.6-3.1,8.1-5.1c2.6-2.2,5.1-4.7,7.2-7.4c0.8-1.1,1.6-2.2,2.4-3.4c-0.1-0.1-0.1-0.2-0.1-0.3
		c-0.2-0.4-0.4-0.8-0.6-1.2c0-0.1-0.1-0.1-0.1-0.1c-1.7-3.1-3.6-6.1-5.7-8.8c-2.1-2.8-4.5-5.4-7.2-7.6c-0.5,2.3-1.2,4.5-2.1,6.7
		c-0.1,0.2-0.1,0.4-0.2,0.6c-1.1,2.7-2.7,5.3-4.6,7.5c-2,2.3-4.4,4.1-7.1,5.3l0,0c-1.2,0.5-2.5,1-3.8,1.4c-1.9,0.5-3.8,0.7-5.7,0.7
		h-0.3c-1.6,0-3.2-0.2-4.8-0.5C84.5,94.9,84.9,99.3,86.4,103.3z"/>
	<path class="st3" d="M71.2,91.4c-0.1,0-0.1,0.1-0.1,0.1l0,0C71,91.6,71,91.8,70.9,92c-0.1,0.4-0.3,0.7-0.4,1.1
		c-0.1,0.2-0.1,0.4-0.2,0.6c-0.1,0.5-0.4,1.1-0.5,1.6c-0.4,1.6-0.7,3.2-0.9,4.8c-0.1,0.9-0.1,1.9-0.1,2.8s0.1,2,0.1,3
		c0.4,3.1,1.2,6.2,2.6,9.1c1.4,2.9,3.1,5.6,5.1,8.1c2.2,2.6,4.7,5.1,7.4,7.2c1.1,0.8,2.2,1.6,3.4,2.4c0.1-0.1,0.2-0.1,0.3-0.1
		c0.4-0.2,0.8-0.4,1.2-0.6c0.1,0,0.1-0.1,0.1-0.1c3.1-1.7,6.1-3.6,8.8-5.7c2.8-2.1,5.4-4.5,7.6-7.2c-2.3-0.5-4.5-1.2-6.7-2.1
		c-0.2-0.1-0.4-0.1-0.6-0.2c-2.7-1.1-5.3-2.7-7.5-4.6c-2.3-2-4.1-4.4-5.3-7.1l0,0c-0.5-1.2-1-2.5-1.4-3.8c-0.5-1.9-0.7-3.8-0.7-5.7
		v-0.3c0-1.6,0.2-3.2,0.5-4.8C79.6,89.4,75.2,89.8,71.2,91.4z"/>
	<path class="st4" d="M83.2,76.2c0-0.1-0.1-0.1-0.1-0.1l0,0c-0.2-0.1-0.4-0.1-0.6-0.2c-0.4-0.1-0.7-0.3-1.1-0.4
		c-0.2-0.1-0.4-0.1-0.6-0.2c-0.5-0.1-1.1-0.4-1.6-0.5c-1.6-0.4-3.2-0.7-4.8-0.9c-0.9-0.1-1.9-0.1-2.8-0.1s-2,0.1-3,0.1
		c-3.1,0.4-6.2,1.2-9.1,2.6c-2.9,1.4-5.6,3.1-8.1,5.1c-2.6,2.2-5.1,4.7-7.2,7.4c-0.8,1.1-1.6,2.2-2.4,3.4c0.1,0.1,0.1,0.2,0.1,0.3
		c0.2,0.4,0.4,0.8,0.6,1.2c0,0.1,0,0.1,0.1,0.2c1.7,3.1,3.6,6.1,5.7,8.8c2.1,2.8,4.5,5.4,7.2,7.6c0.5-2.3,1.2-4.5,2.1-6.7
		c0.1-0.2,0.1-0.4,0.2-0.6c1.1-2.7,2.7-5.3,4.6-7.5c2-2.3,4.4-4.1,7.1-5.3l0,0c1.2-0.5,2.5-1,3.8-1.4c1.9-0.5,3.8-0.7,5.7-0.7h0.3
		c1.6,0,3.2,0.2,4.8,0.5C85.1,84.6,84.8,80.2,83.2,76.2z"/>
	<path d="M149.4,135.1c0.1,2.2-0.6,4.4-1.9,6.2c-1.2,1.6-3.1,2.5-5.1,2.4c-2.1,0.1-4.1-1-5.2-2.8l-0.5,2.4h-2.5v-25.7h3.3v10
		c0.5-0.8,1.2-1.4,2.1-1.8c0.9-0.4,1.9-0.7,2.9-0.6c2.1-0.1,4,0.9,5.1,2.6c1.3,2.1,2,4.5,1.9,6.9L149.4,135.1L149.4,135.1z
		 M146.1,134.8c0.1-1.7-0.3-3.5-1.1-5c-0.7-1.2-2-2-3.4-1.9c-0.9,0-1.8,0.2-2.6,0.7c-0.7,0.5-1.3,1.2-1.6,2v7.7
		c0.4,0.8,0.9,1.5,1.6,2.1c0.8,0.5,1.7,0.8,2.6,0.7c1.3,0.1,2.6-0.6,3.4-1.6c0.8-1.3,1.2-2.8,1.1-4.3V134.8z"/>
	<path d="M158.6,136.8l0.6,2.2h0.1l4.4-13.5h3.6l-7.5,20.6c-0.4,1.2-1.1,2.2-1.9,3.1c-0.9,0.9-2.1,1.4-3.4,1.4c-0.3,0-0.7,0-1-0.1
		c-0.3-0.1-0.6-0.1-0.9-0.1l0.4-2.6h0.6c0.4,0,0.7,0.1,0.9,0.1c0.7,0,1.3-0.3,1.7-0.9c0.4-0.6,0.8-1.3,1.1-2.1l0.8-1.9l-6.6-17.5
		h3.6L158.6,136.8z"/>
	<path d="M189.4,143.4c-0.1-0.6-0.2-1-0.3-1.4c-0.1-0.4-0.1-0.9-0.1-1.2c-0.6,0.9-1.4,1.6-2.4,2.1c-0.9,0.6-2,0.9-3.1,0.9
		c-1.6,0.1-3.1-0.4-4.3-1.4c-1-1-1.5-2.5-1.4-3.9c-0.1-1.6,0.7-3.1,2.1-4c1.7-1,3.7-1.5,5.6-1.4h3.5v-1.8c0.1-0.9-0.3-1.8-0.9-2.5
		c-0.7-0.7-1.7-1-2.7-0.9c-0.9,0-1.8,0.2-2.6,0.8c-0.6,0.4-1,1.2-1,1.9h-3.1v-0.1c0-1.4,0.7-2.8,1.9-3.6c1.4-1.1,3.2-1.7,5-1.6
		c1.8-0.1,3.5,0.5,4.8,1.6c1.3,1.1,2,2.7,1.9,4.4v8.6c0,0.6,0,1.2,0.1,1.9c0.1,0.6,0.2,1.2,0.4,1.8L189.4,143.4L189.4,143.4z
		 M184.1,141c1.1,0,2.3-0.3,3.2-0.9c0.8-0.5,1.5-1.2,1.9-2.1v-2.9h-3.6c-1.1,0-2.2,0.3-3.1,1c-0.8,0.6-1.2,1.4-1.2,2.4
		c-0.1,0.7,0.2,1.4,0.7,1.9C182.5,140.8,183.3,141.1,184.1,141z"/>
	<path d="M203.1,132.1l3.8-6.6h3.8l-5.8,8.8l5.9,9.1h-3.7l-4-6.8l-4,6.8h-3.8l5.9-9.1l-5.8-8.8h3.8L203.1,132.1z"/>
	<path d="M218.6,136.9l0.4,2.3h0.1l0.4-2.3l3.6-11.3h2.6l3.6,11.3l0.4,2.6h0.1l0.5-2.6l2.6-11.3h3.4l-5.2,17.8h-2.6l-3.5-10.8
		l-0.6-2.9h-0.1l-0.6,2.9l-3.5,10.8h-2.6l-5.2-17.8h3.4L218.6,136.9z"/>
	<path d="M250.6,143.4c-0.1-0.6-0.2-1-0.3-1.4c-0.1-0.4-0.1-0.9-0.1-1.2c-0.6,0.9-1.4,1.6-2.4,2.1c-2.4,1.3-5.3,1.1-7.4-0.6
		c-1-1-1.5-2.5-1.4-3.9c-0.1-1.6,0.7-3.1,2.1-4c1.7-1,3.7-1.5,5.6-1.4h3.5v-1.8c0.1-0.9-0.3-1.8-0.9-2.5c-0.7-0.7-1.7-1-2.7-0.9
		c-0.9,0-1.8,0.2-2.6,0.8c-0.6,0.4-1,1.2-1,1.9h-3.1v-0.1c0-1.4,0.7-2.8,1.9-3.6c1.4-1.1,3.2-1.7,5-1.6c1.8-0.1,3.5,0.5,4.8,1.6
		c1.3,1.1,2,2.7,1.9,4.4v8.6c0,0.6,0,1.2,0.1,1.9c0.1,0.6,0.2,1.2,0.4,1.8L250.6,143.4L250.6,143.4z M245.2,141
		c1.1,0,2.3-0.3,3.2-0.9c0.8-0.5,1.5-1.2,1.9-2.1v-2.9h-3.6c-1.1,0-2.2,0.3-3.1,1c-0.8,0.6-1.2,1.4-1.2,2.4
		c-0.1,0.7,0.2,1.4,0.7,1.9C243.6,140.8,244.4,141.1,245.2,141z"/>
	<path d="M263.4,136.8l0.6,2.2h0.1l4.4-13.5h3.6l-7.5,20.6c-0.4,1.2-1.1,2.2-1.9,3.1c-0.9,0.9-2.1,1.4-3.4,1.4c-0.3,0-0.7,0-1-0.1
		c-0.3-0.1-0.6-0.1-0.9-0.1l0.4-2.6h0.6c0.4,0,0.7,0.1,0.9,0.1c0.7,0,1.3-0.3,1.7-0.9c0.4-0.6,0.8-1.3,1.1-2.1l0.8-1.9l-6.6-17.5
		h3.6L263.4,136.8z"/>
	<path d="M141.3,94.4c0.2,2.6,2.1,5,6.1,5c2.9,0,4.3-1.6,4.3-3.3c0-1.5-1-2.7-3.6-3.2l-4.3-1c-6.3-1.4-9.3-5.2-9.3-9.8
		c0-5.9,5.2-10.8,12.3-10.8c9.4,0,12.5,6,12.9,9.5l-7.4,1.6c-0.3-1.9-1.6-4.4-5.4-4.4c-2.4,0-4.2,1.4-4.2,3.3c0,1.6,1.2,2.6,3,2.9
		l4.7,1c6.5,1.4,9.8,5.3,9.8,10.1c0,5.3-4.1,10.8-12.8,10.8c-9.9,0-13.3-6.4-13.8-10.2L141.3,94.4z"/>
	<path d="M165.6,118.5l7.8-17.2l-14-28.8h10l8.8,19.3l8.1-19.3h9.5l-20.7,46H165.6z"/>
	<path d="M207,105.5h-8.9V72.5h8.6v4.1c2-3.4,6-5,9.5-5c8.2,0,11.9,5.8,11.9,13v20.7h-8.9V86.2c0-3.7-1.8-6.6-6.1-6.6
		c-3.9,0-6.1,3-6.1,6.8L207,105.5L207,105.5z"/>
	<path d="M240.5,89c0,6,3.8,9.3,8.4,9.3c3.5,0.2,6.7-2.2,7.6-5.6l7.8,2.6c-1.5,5.5-6.6,11.1-15.4,11.1c-9.7,0-17.3-7.3-17.3-17.5
		s7.5-17.5,17.1-17.5c9,0,14,5.6,15.5,11.1l-8,2.7c-0.8-2.8-2.9-5.6-7.3-5.6C244.3,79.7,240.5,83,240.5,89z"/>
	<path d="M267.8,118.2V72.5h8.6v4c1.5-2.6,5.1-4.8,10.1-4.8c9.6,0,15.2,7.3,15.2,17.2c0,10-6.2,17.3-15.5,17.3c-4.6,0-7.9-1.8-9.5-4
		v16H267.8z M284.8,79.7c-4.6,0-8.3,3.4-8.3,9.3s3.7,9.3,8.3,9.3s8.2-3.4,8.2-9.3S289.3,79.7,284.8,79.7z"/>
	<path d="M305.6,105.5V57h8.9v48.5H305.6z"/>
	<path d="M325.3,56.2c3,0,5.5,2.5,5.5,5.5c0,3-2.5,5.5-5.5,5.5c-3,0-5.4-2.4-5.5-5.4C319.8,58.7,322.3,56.2,325.3,56.2
		C325.3,56.2,325.3,56.2,325.3,56.2z M320.9,105.5V72.5h8.9v32.9H320.9z"/>
	<path d="M342.6,89c0,6,3.8,9.3,8.4,9.3c3.5,0.2,6.7-2.2,7.6-5.6l7.8,2.6c-1.5,5.5-6.6,11.1-15.4,11.1c-9.7,0-17.3-7.3-17.3-17.5
		s7.5-17.5,17.1-17.5c9,0,14,5.6,15.5,11.1l-8,2.7c-0.8-2.8-2.9-5.6-7.3-5.6C346.4,79.7,342.6,83,342.6,89z"/>
	<path d="M374.3,56.2c3,0,5.5,2.5,5.5,5.5c0,3-2.5,5.5-5.5,5.5c-3,0-5.4-2.4-5.5-5.4C368.8,58.7,371.2,56.2,374.3,56.2
		C374.3,56.2,374.3,56.2,374.3,56.2z M369.9,105.5V72.5h8.9v32.9H369.9z"/>
	<path d="M396.1,72.5h6.6v7.9h-6.6v13.8c0,2.9,1.4,3.8,3.8,3.8c0.9,0,1.9-0.1,2.8-0.3v7.3c-1.6,0.6-3.3,0.9-5,0.8
		c-6.4,0-10.5-3.8-10.5-10.2V80.5h-6v-7.9h1.6c3.5,0,5.1-2.3,5.1-5.2v-4.6h8.1L396.1,72.5L396.1,72.5z"/>
	<path d="M409.9,118.5l7.8-17.2l-14-28.8h10l8.8,19.3l8.1-19.3h9.5l-20.7,46H409.9z"/>
</g>
</svg>
