<svg id="Layer_1" data-name="Layer 1" xmlns="http://www.w3.org/2000/svg" viewBox="0 0 573 155.6"><defs><style>.cls-1{fill:#d12430;}.cls-2{fill:#6c1c45;}.cls-3{fill:#c8c8c6;}.cls-4{fill:#7b99ac;}</style></defs><title>Artboard 1</title><path class="cls-1" d="M85,61.8c.1,0,.1-.1.2-.1h0c.1-.3.2-.5.3-.8.2-.5.4-1,.6-1.6.1-.3.2-.5.3-.8.2-.7.5-1.5.7-2.3a38.72,38.72,0,0,0,1.2-6.8c.1-1.3.2-2.6.2-3.9s-.1-2.8-.2-4.2a40.16,40.16,0,0,0-3.6-12.7,54,54,0,0,0-7.2-11.3A71,71,0,0,0,67.1,7.2a49.75,49.75,0,0,0-4.7-3.3,4.17,4.17,0,0,0-.6.2c-.6.3-1.1.6-1.7.9l-.1.1a90.31,90.31,0,0,0-12.4,8A64,64,0,0,0,36.9,23.2a60.52,60.52,0,0,1,9.4,3c.3.1.5.2.8.3A39.23,39.23,0,0,1,57.6,33a30.22,30.22,0,0,1,7.5,9.9h0A41.35,41.35,0,0,1,67,48.2a30.78,30.78,0,0,1,1,8v.4a30.51,30.51,0,0,1-.7,6.7A30.5,30.5,0,0,0,85,61.8Z"/><path class="cls-2" d="M68.2,83.1c0,.1.1.1.1.2h0c.3.1.5.2.8.3.5.2,1,.4,1.6.6.3.1.5.2.8.3.7.2,1.5.5,2.3.7a38.72,38.72,0,0,0,6.8,1.2c1.3.1,2.6.2,3.9.2s2.8-.1,4.2-.2a40.16,40.16,0,0,0,12.7-3.6,54,54,0,0,0,11.3-7.2,71,71,0,0,0,10.1-10.4,49.75,49.75,0,0,0,3.3-4.7c-.1-.1-.1-.3-.2-.4-.3-.6-.6-1.1-.9-1.7,0-.1-.1-.1-.1-.2a90.31,90.31,0,0,0-8-12.4,64,64,0,0,0-10.1-10.7,60.52,60.52,0,0,1-3,9.4c-.1.3-.2.5-.3.8A39.23,39.23,0,0,1,97,55.8a30.22,30.22,0,0,1-9.9,7.5h0a41.35,41.35,0,0,1-5.3,1.9,30.78,30.78,0,0,1-8,1h-.4a30.51,30.51,0,0,1-6.7-.7A31.11,31.11,0,0,0,68.2,83.1Z"/><path class="cls-3" d="M46.9,66.4c-.1,0-.1.1-.2.1h0c-.1.3-.2.5-.3.8-.2.5-.4,1-.6,1.6-.1.3-.2.5-.3.8-.2.7-.5,1.5-.7,2.3a38.72,38.72,0,0,0-1.2,6.8c-.1,1.3-.2,2.6-.2,3.9s.1,2.8.2,4.2a40.16,40.16,0,0,0,3.6,12.7,54,54,0,0,0,7.2,11.3A71,71,0,0,0,64.8,121a49.75,49.75,0,0,0,4.7,3.3c.1-.1.3-.1.4-.2.6-.3,1.1-.6,1.7-.9.1,0,.1-.1.2-.1a90.31,90.31,0,0,0,12.4-8A64,64,0,0,0,94.9,105a60.52,60.52,0,0,1-9.4-3c-.3-.1-.5-.2-.8-.3a39.23,39.23,0,0,1-10.5-6.5,30.22,30.22,0,0,1-7.5-9.9h0A41.35,41.35,0,0,1,64.8,80a30.78,30.78,0,0,1-1-8v-.4a30.51,30.51,0,0,1,.7-6.7A30.16,30.16,0,0,0,46.9,66.4Z"/><path class="cls-4" d="M63.7,45.1c0-.1-.1-.1-.1-.2h0c-.3-.1-.5-.2-.8-.3-.5-.2-1-.4-1.6-.6-.3-.1-.5-.2-.8-.3-.7-.2-1.5-.5-2.3-.7a38.72,38.72,0,0,0-6.8-1.2c-1.3-.1-2.6-.2-3.9-.2s-2.8.1-4.2.2a40.16,40.16,0,0,0-12.7,3.6,54,54,0,0,0-11.3,7.2A71,71,0,0,0,9.1,63a49.75,49.75,0,0,0-3.3,4.7c.1.1.1.3.2.4.3.6.6,1.1.9,1.7,0,.2,0,.2.1.3a90.31,90.31,0,0,0,8,12.4A64,64,0,0,0,25.1,93.2a60.52,60.52,0,0,1,3-9.4c.1-.3.2-.5.3-.8a39.23,39.23,0,0,1,6.5-10.5A30.22,30.22,0,0,1,44.8,65h0a41.35,41.35,0,0,1,5.3-1.9,30.78,30.78,0,0,1,8-1h.4a30.51,30.51,0,0,1,6.7.7A31.46,31.46,0,0,0,63.7,45.1Z"/><path d="M156.5,127.8a13.86,13.86,0,0,1-2.6,8.7,8.57,8.57,0,0,1-7.2,3.3,8,8,0,0,1-7.3-3.9l-.7,3.4h-3.5V103.2h4.6v14a7.63,7.63,0,0,1,2.9-2.5,8.85,8.85,0,0,1,4.1-.9,8.16,8.16,0,0,1,7.2,3.7,16.85,16.85,0,0,1,2.6,9.7v.6Zm-4.6-.5a13.2,13.2,0,0,0-1.6-7,5.3,5.3,0,0,0-4.8-2.7,6.09,6.09,0,0,0-3.6,1,7.1,7.1,0,0,0-2.3,2.8v10.8a8.46,8.46,0,0,0,2.3,2.9,5.7,5.7,0,0,0,3.6,1,5.62,5.62,0,0,0,4.8-2.3,10.78,10.78,0,0,0,1.6-6.1Z"/><path d="M169.4,130.1l.8,3.1h.1l6.2-18.9h5.1l-10.5,28.9a12.46,12.46,0,0,1-2.7,4.4,6.55,6.55,0,0,1-4.8,1.9,7.6,7.6,0,0,1-1.4-.1,10.5,10.5,0,0,0-1.3-.2l.5-3.6h.8c.6,0,1,.1,1.2.1a2.71,2.71,0,0,0,2.4-1.3,13.23,13.23,0,0,0,1.5-2.9l1.1-2.6-9.3-24.5h5.1Z"/><path d="M212.7,139.4c-.2-.8-.3-1.4-.4-2s-.1-1.2-.2-1.7a10.6,10.6,0,0,1-3.3,3,8.31,8.31,0,0,1-4.4,1.2,8.51,8.51,0,0,1-6-2,7.18,7.18,0,0,1-2-5.5,6.46,6.46,0,0,1,2.9-5.6,14,14,0,0,1,7.9-2h4.9v-2.5a4.6,4.6,0,0,0-1.3-3.5,5.17,5.17,0,0,0-3.8-1.3,5.72,5.72,0,0,0-3.6,1.1,3.32,3.32,0,0,0-1.4,2.7h-4.3v-.1a5.86,5.86,0,0,1,2.6-5,10.72,10.72,0,0,1,7-2.3,9.94,9.94,0,0,1,6.8,2.2,7.64,7.64,0,0,1,2.6,6.2v12.1a21.75,21.75,0,0,0,.1,2.6,22.11,22.11,0,0,0,.5,2.5h-4.6Zm-7.5-3.4a8.12,8.12,0,0,0,4.5-1.3,5.94,5.94,0,0,0,2.6-2.9v-4.1h-5.1a6.82,6.82,0,0,0-4.4,1.4,4.17,4.17,0,0,0-1.7,3.3,3.25,3.25,0,0,0,1,2.6A4.14,4.14,0,0,0,205.2,136Z"/><path d="M231.9,123.6l5.3-9.2h5.3l-8.1,12.4,8.3,12.7h-5.2l-5.6-9.5-5.6,9.5H221l8.3-12.7-8.1-12.4h5.3Z"/><path d="M253.6,130.3l.6,3.2h.1l.6-3.2,5-15.9h3.7l5,15.9.6,3.6h.1l.7-3.6,3.7-15.9h4.8l-7.3,25h-3.7l-4.9-15.2-.9-4h-.1l-.9,4-4.9,15.2h-3.7l-7.3-25h4.7Z"/><path d="M298.5,139.4c-.2-.8-.3-1.4-.4-2s-.1-1.2-.2-1.7a10.6,10.6,0,0,1-3.3,3,9.4,9.4,0,0,1-10.4-.8,7.18,7.18,0,0,1-2-5.5,6.46,6.46,0,0,1,2.9-5.6,14,14,0,0,1,7.9-2h4.9v-2.5a4.6,4.6,0,0,0-1.3-3.5,5.17,5.17,0,0,0-3.8-1.3,5.72,5.72,0,0,0-3.6,1.1,3.32,3.32,0,0,0-1.4,2.7h-4.3v-.1a5.86,5.86,0,0,1,2.6-5,10.72,10.72,0,0,1,7-2.3,9.94,9.94,0,0,1,6.8,2.2,7.64,7.64,0,0,1,2.6,6.2v12.1a21.75,21.75,0,0,0,.1,2.6,22.11,22.11,0,0,0,.5,2.5h-4.6Zm-7.6-3.4a7.89,7.89,0,0,0,4.5-1.3,5.87,5.87,0,0,0,2.6-2.9v-4.1h-5.1a6.82,6.82,0,0,0-4.4,1.4,4.17,4.17,0,0,0-1.7,3.3,3.25,3.25,0,0,0,1,2.6A4.14,4.14,0,0,0,290.9,136Z"/><path d="M316.4,130.1l.8,3.1h.1l6.2-18.9h5.1l-10.5,28.9a12.46,12.46,0,0,1-2.7,4.4,6.18,6.18,0,0,1-4.8,1.9,7.6,7.6,0,0,1-1.4-.1,10.5,10.5,0,0,0-1.3-.2l.5-3.6h.8c.6,0,1,.1,1.2.1a2.71,2.71,0,0,0,2.4-1.3,13.23,13.23,0,0,0,1.5-2.9l1.1-2.6-9.3-24.5h5.1Z"/><path d="M145.2,70.6c.3,3.7,3,7,8.5,7,4.1,0,6.1-2.2,6.1-4.6,0-2.1-1.4-3.8-5-4.5l-6.1-1.4c-8.9-2-13-7.3-13-13.8,0-8.3,7.3-15.1,17.3-15.1,13.2,0,17.6,8.4,18.1,13.3l-10.4,2.3c-.4-2.7-2.3-6.2-7.6-6.2-3.3,0-5.9,2-5.9,4.6,0,2.3,1.7,3.7,4.2,4.1l6.6,1.4c9.1,1.9,13.7,7.4,13.7,14.2,0,7.5-5.8,15.2-17.9,15.2-13.9,0-18.7-9-19.3-14.3Z"/><path d="M179.3,104.5l10.9-24.1L170.6,40h14l12.3,27.1L208.3,40h13.3l-29,64.5Z"/><path d="M237.3,86.2H224.8V40h12.1v5.7c2.8-4.8,8.4-7,13.3-7,11.5,0,16.7,8.2,16.7,18.3V86.1H254.4v-27c0-5.2-2.5-9.2-8.5-9.2-5.5,0-8.6,4.2-8.6,9.6V86.2Z"/><path d="M284.3,63.1c0,8.4,5.4,13.1,11.8,13.1a10.49,10.49,0,0,0,10.6-7.8l11,3.7c-2.1,7.7-9.3,15.6-21.6,15.6-13.6,0-24.3-10.3-24.3-24.5s10.5-24.5,24-24.5c12.6,0,19.7,7.8,21.7,15.6l-11.2,3.8c-1.1-3.9-4-7.8-10.2-7.8C289.7,50.1,284.3,54.7,284.3,63.1Z"/><path d="M322.6,104.1V40h12.1v5.6c2.1-3.6,7.2-6.7,14.2-6.7,13.5,0,21.3,10.3,21.3,24.1,0,14-8.7,24.3-21.8,24.3-6.4,0-11.1-2.5-13.3-5.6v22.4Zm23.8-54c-6.4,0-11.6,4.8-11.6,13s5.2,13.1,11.6,13.1,11.5-4.8,11.5-13.1S352.8,50.1,346.4,50.1Z"/><path d="M375.7,86.2v-68h12.5v68Z"/><path d="M403.3,17.1a7.7,7.7,0,1,1-7.7,7.8A7.73,7.73,0,0,1,403.3,17.1Zm-6.2,69.1V40h12.5V86.2Z"/><path d="M427.5,63.1c0,8.4,5.4,13.1,11.8,13.1a10.49,10.49,0,0,0,10.6-7.8l11,3.7c-2.1,7.7-9.3,15.6-21.6,15.6-13.6,0-24.3-10.3-24.3-24.5s10.5-24.5,24-24.5c12.6,0,19.7,7.8,21.7,15.6l-11.2,3.8c-1.1-3.9-4-7.8-10.2-7.8C432.9,50.1,427.5,54.7,427.5,63.1Z"/><path d="M472,17.1a7.7,7.7,0,1,1-7.7,7.8A7.73,7.73,0,0,1,472,17.1Zm-6.2,69.1V40h12.5V86.2Z"/><path d="M502.6,40h9.3V51.1h-9.3V70.5c0,4,1.9,5.4,5.4,5.4a17.91,17.91,0,0,0,3.9-.4V85.8a18,18,0,0,1-7,1.1c-9,0-14.7-5.4-14.7-14.3V51.1h-8.4V40h2.3c4.9,0,7.1-3.2,7.1-7.3V26.2h11.3V40Z"/><path d="M521.9,104.5l10.9-24.1L513.1,40h14l12.3,27.1L550.8,40h13.3l-29,64.5Z"/></svg>